<?xml version="1.0" encoding="UTF-8" standalone="no"?>
<!DOCTYPE svg PUBLIC "-//W3C//DTD SVG 1.1//EN" "http://www.w3.org/Graphics/SVG/1.1/DTD/svg11.dtd">
<svg width="100%" height="100%" viewBox="0 0 456 428"
  version="1.1" xmlns="http://www.w3.org/2000/svg" xmlns:xlink="http://www.w3.org/1999/xlink"
  xml:space="preserve">
  <style type="text/css">
    <![CDATA[
    .element { fill: #f5f5f5; }
    ]]>
  </style>
<path class="element" d="M243,404.4c42.2,-3.4 80.5,-20.4 110.5,-46.8l0,-166.2l-110.5,0l0,213Z" />
<path class="element" d="M384.2,105l0,218.3c21.6,-30.9 34.3,-68.6 34.3,-109.1c0,-40.5 -12.7,-78.3 -34.3,-109.2Z" />
<path class="element" d="M212.3,191.4l-110.5,0l0,166.2c30,26.3 68.3,43.4 110.5,46.8l0,-213Z" />
<path class="element" d="M101.8,160.7l251.7,0l0,-90.1c-33.6,-29.5 -77.6,-47.4 -125.9,-47.4c-48.2,0 -92.3,17.9 -125.9,47.4l0,90.1l0.1,0Z" />
<path class="element" d="M71,105c-21.6,30.9 -34.3,68.6 -34.3,109.1c0,40.5 12.7,78.2 34.3,109.1l0,-218.2Z" />
</svg>
